<svg xmlns="http://www.w3.org/2000/svg" xmlns:xlink="http://www.w3.org/1999/xlink" viewBox="0 0 33.85 34.24"><defs><radialGradient id="radial-gradient" cx="-152.51" cy="15.08" r="241.55" gradientUnits="userSpaceOnUse"><stop offset="0.01" stop-color="#104073"/><stop offset="0.43" stop-color="#0e3e70"/><stop offset="0.75" stop-color="#0a3766"/><stop offset="1" stop-color="#032e59"/></radialGradient><linearGradient id="linear-gradient" x1="-14.08" y1="-14.56" x2="66.59" y2="67.89" gradientUnits="userSpaceOnUse"><stop offset="0" stop-color="#e7aa39"/><stop offset="0.23" stop-color="#f7fc97"/><stop offset="0.45" stop-color="#e7aa39"/><stop offset="1" stop-color="#632507"/></linearGradient></defs><g id="Calque_2" data-name="Calque 2"><g id="OBJECTS"><path d="M32.05,16.6a2.45,2.45,0,0,0-.78-4.12h0l-.06,0-.08-.07a.43.43,0,0,1-.1-.09l0,0a.69.69,0,0,1-.1-.65,1.1,1.1,0,0,1,.09-.14,2.44,2.44,0,0,0-2.1-3.59h-.12a.45.45,0,0,1-.11,0l-.13-.05a.1.1,0,0,0-.05,0,.69.69,0,0,1-.32-.57,1,1,0,0,1,0-.17,2.42,2.42,0,0,0-.84-2.21,2.46,2.46,0,0,0-2.4-.44h0l-.07,0h-.16l-.15,0h-.06a.69.69,0,0,1-.43-.42.44.44,0,0,1,0-.16A2.43,2.43,0,0,0,22.48,2a2.4,2.4,0,0,0-2.4.41h0s0,0,0,.05a.29.29,0,0,1-.1,0l-.14,0h-.05a.71.71,0,0,1-.62-.24A.69.69,0,0,1,19,2.13,2.42,2.42,0,0,0,17,1h0a2.44,2.44,0,0,0-2.12,1.21h0s0,0,0,.06a.7.7,0,0,1-.19.15.48.48,0,0,1-.18.07l-.11,0-.07,0a.83.83,0,0,1-.15,0l0,0a.37.37,0,0,1-.15,0,.69.69,0,0,1-.13-.11A2.44,2.44,0,0,0,9.86,3.8s0,0,0,0a.13.13,0,0,1,0,.06A.43.43,0,0,1,9.8,4a.64.64,0,0,1-.08.14.08.08,0,0,1,0,0,.66.66,0,0,1-.5.23H9.05a.94.94,0,0,1-.15-.06A2.44,2.44,0,0,0,5.73,7V7s0,0,0,.06a.43.43,0,0,1,0,.11.68.68,0,0,1,0,.14l0,.06a.66.66,0,0,1-.51.4H5a2.44,2.44,0,0,0-2,3.65H3l0,.06a.41.41,0,0,1,0,.11.32.32,0,0,1,0,.14.13.13,0,0,1,0,.06.67.67,0,0,1-.33.56.61.61,0,0,1-.13,0,2.45,2.45,0,0,0-.71,4.15h0l.06.05a.73.73,0,0,1,.05.09.75.75,0,0,1,.07.12.13.13,0,0,1,0,.06.67.67,0,0,1-.12.65.94.94,0,0,1-.12.09A2.41,2.41,0,0,0,1,19.89a2.44,2.44,0,0,0,1.56,1.88h0l.07,0,.08.07.1.09,0,.05a.69.69,0,0,1,.1.65s0,.05-.06.08a2.43,2.43,0,0,0,0,2.43A2.45,2.45,0,0,0,5,26.4h.09a.32.32,0,0,1,.09,0l.14.05.05,0a.69.69,0,0,1,.32.57.53.53,0,0,1,0,.17A2.44,2.44,0,0,0,8.92,29.9h0l.06,0h.24l.08,0a.67.67,0,0,1,.48.43.41.41,0,0,1,0,.16,2.44,2.44,0,0,0,3.93,1.39s.05-.05.08-.06a.34.34,0,0,1,.14-.05s0,0,.08,0h.09a.69.69,0,0,1,.61.23,1.74,1.74,0,0,1,.1.19,2.42,2.42,0,0,0,2,1.11A2.45,2.45,0,0,0,19,32.06h0L19,32a.31.31,0,0,1,.09-.07.43.43,0,0,1,.1-.09l.06,0a.68.68,0,0,1,.66,0,1.27,1.27,0,0,1,.13.11A2.44,2.44,0,0,0,24,30.45h0a.17.17,0,0,1,0-.07.33.33,0,0,1,.06-.1l.06-.11.06-.06a.65.65,0,0,1,.61-.2.67.67,0,0,1,.15.06,2.44,2.44,0,0,0,3.17-2.73s0,0,0,0,0,0,0-.07,0-.08,0-.12a.53.53,0,0,1,0-.12.15.15,0,0,1,0-.07.67.67,0,0,1,.5-.41.55.55,0,0,1,.18,0,2.45,2.45,0,0,0,2-3.65s0,0,0,0,0,0,0,0,0-.07,0-.1a.77.77,0,0,1,0-.15v-.06a.69.69,0,0,1,.34-.56.49.49,0,0,1,.16-.05A2.45,2.45,0,0,0,32,17.67s0,0,0,0l-.05,0-.05-.1a.75.75,0,0,1-.07-.12.64.64,0,0,1,0-.07.66.66,0,0,1,.13-.63A.41.41,0,0,1,32.05,16.6Z" style="fill:url(#radial-gradient)"/><path d="M33.79,14.19a3.66,3.66,0,0,0-1.74-2.53,3.68,3.68,0,0,0-2.78-4.85A3.68,3.68,0,0,0,25,3.21a3.68,3.68,0,0,0-5.25-1.92A3.66,3.66,0,0,0,17,0h0a3.68,3.68,0,0,0-2.79,1.28,3.68,3.68,0,0,0-5.26,1.9A3.66,3.66,0,0,0,4.63,6.76a3.67,3.67,0,0,0-2.81,4.83,3.69,3.69,0,0,0-1,5.5,3.69,3.69,0,0,0,1,5.5,3.69,3.69,0,0,0,.28,3.07,3.74,3.74,0,0,0,2.5,1.78A3.71,3.71,0,0,0,8.3,31.1a3.64,3.64,0,0,0,.56-.05A3.67,3.67,0,0,0,11,33.2a3.62,3.62,0,0,0,1.29.23A3.82,3.82,0,0,0,14.11,33a3.7,3.7,0,0,0,5.55,0,3.78,3.78,0,0,0,1.79.46,3.71,3.71,0,0,0,3.47-2.36,3.92,3.92,0,0,0,.59.05,3.73,3.73,0,0,0,3.71-3.65A3.69,3.69,0,0,0,32,22.66a3.66,3.66,0,0,0,1.76-2.53,3.71,3.71,0,0,0-.77-3A3.68,3.68,0,0,0,33.79,14.19Zm-2.34,3.14s0,0,0,.06a.47.47,0,0,0,.07.12.16.16,0,0,0,.05.09.1.1,0,0,0,.05,0v0a2.39,2.39,0,0,1-.66,4,.49.49,0,0,0-.16,0,.7.7,0,0,0-.33.55v.06a.68.68,0,0,0,0,.14s0,.07,0,.1,0,0,0,0a0,0,0,0,0,0,0,2.39,2.39,0,0,1-2,3.57.55.55,0,0,0-.18,0,.67.67,0,0,0-.49.4l0,.07a.43.43,0,0,0,0,.12.43.43,0,0,0,0,.11s0,0,0,.07h0a2.39,2.39,0,0,1-3.1,2.67.41.41,0,0,0-.15-.07.67.67,0,0,0-.6.21s0,0-.05.05a.41.41,0,0,0-.07.11s0,.06-.05.09a.22.22,0,0,0,0,.08h0A2.38,2.38,0,0,1,20,31.59a.63.63,0,0,0-.12-.11.66.66,0,0,0-.64,0l-.06,0a.39.39,0,0,0-.1.08l-.09.07,0,.06h0a2.4,2.4,0,0,1-4.06.09.51.51,0,0,0-.09-.18.64.64,0,0,0-.6-.23h-.08l-.08,0a.58.58,0,0,0-.14.05l-.08.07A2.39,2.39,0,0,1,10,30.18c0-.05,0-.1,0-.16a.66.66,0,0,0-.48-.41l-.07,0a.28.28,0,0,0-.13,0,.41.41,0,0,0-.11,0l-.06,0h0A2.38,2.38,0,0,1,5.94,27a1.1,1.1,0,0,0,0-.16.65.65,0,0,0-.31-.56l0,0-.13-.05a.29.29,0,0,0-.1,0s0,0-.06,0h0a2.39,2.39,0,0,1-2-1.2,2.36,2.36,0,0,1,0-2.37s0,0,.06-.08a.67.67,0,0,0-.1-.63l0,0-.1-.09L3,21.69l-.06,0h0a2.38,2.38,0,0,1-.75-4l.12-.09a.64.64,0,0,0,.12-.63s0,0,0-.06a.75.75,0,0,0-.07-.12.73.73,0,0,0-.05-.09l0,0v0a2.37,2.37,0,0,1-.8-2.24,2.34,2.34,0,0,1,1.49-1.81l.12,0A.66.66,0,0,0,3.34,12V11.9a.68.68,0,0,0,0-.14.34.34,0,0,0,0-.1l0-.06h0A2.39,2.39,0,0,1,5.25,8l.07,0h.11a.65.65,0,0,0,.49-.4l0-.06a.7.7,0,0,0,0-.14s0-.06,0-.1a.14.14,0,0,0,0-.06v0a2.4,2.4,0,0,1,3.1-2.67.94.94,0,0,0,.15.06l.13,0a.67.67,0,0,0,.49-.23l0,0A.64.64,0,0,0,10,4.25a.18.18,0,0,0,0-.07V4.12s0,0,0,0a2.39,2.39,0,0,1,3.83-1.44.65.65,0,0,0,.12.11l.15,0h0a.83.83,0,0,0,.15,0l.07,0a.45.45,0,0,0,.11,0l.18-.06a.84.84,0,0,0,.18-.15l0-.06h0A2.38,2.38,0,0,1,17,1.35h0a2.36,2.36,0,0,1,2,1.13.91.91,0,0,0,.07.14.69.69,0,0,0,.61.23h.05l.14,0,.09,0,0,0h0a2.4,2.4,0,0,1,3.87,1.35.44.44,0,0,0,0,.16.68.68,0,0,0,.42.41h.05l.15,0h.16l.06,0h0a2.38,2.38,0,0,1,3.16,2.58,1.1,1.1,0,0,0,0,.16.65.65,0,0,0,.31.56l0,0,.13,0,.1,0h.12a2.39,2.39,0,0,1,2.05,3.51,1.1,1.1,0,0,0-.09.14.67.67,0,0,0,.1.63l0,.05.11.09.08.07h.05l0,0a2.38,2.38,0,0,1,.76,4,.38.38,0,0,0-.12.1A.64.64,0,0,0,31.45,17.33Z" style="fill:url(#linear-gradient)"/><path d="M9.66,16.4l9.48-9.48a1.18,1.18,0,0,1,1.65,0L21.9,8a1.18,1.18,0,0,1,0,1.65l-7.51,7.55,7.51,7.55a1.18,1.18,0,0,1,0,1.65l-1.11,1.11a1.19,1.19,0,0,1-1.66,0L9.66,18.06A1.17,1.17,0,0,1,9.66,16.4Z" style="fill:#e7aa39"/></g></g></svg>