<svg xmlns="http://www.w3.org/2000/svg" xmlns:xlink="http://www.w3.org/1999/xlink" viewBox="0 0 96 96"><defs><radialGradient id="radial-gradient" cx="214.71" cy="46.03" r="237.7" gradientTransform="translate(0.47 1.12) scale(0.99 0.98)" gradientUnits="userSpaceOnUse"><stop offset="0.01" stop-color="#104073"/><stop offset="0.43" stop-color="#0e3e70"/><stop offset="0.75" stop-color="#0a3766"/><stop offset="1" stop-color="#032e59"/></radialGradient><linearGradient id="linear-gradient" x1="17.33" y1="16.64" x2="97.15" y2="98.24" gradientUnits="userSpaceOnUse"><stop offset="0" stop-color="#e7aa39"/><stop offset="0.23" stop-color="#f7fc97"/><stop offset="0.45" stop-color="#e7aa39"/><stop offset="1" stop-color="#632507"/></linearGradient><linearGradient id="linear-gradient-2" x1="17.33" y1="16.65" x2="97.14" y2="98.23" xlink:href="#linear-gradient"/><linearGradient id="linear-gradient-3" x1="17.33" y1="16.65" x2="97.14" y2="98.23" xlink:href="#linear-gradient"/></defs><g id="Calque_2" data-name="Calque 2"><g id="OBJECTS"><path d="M42,88.7a1.87,1.87,0,0,0-2.52-.44l-6.95,4.66a1.22,1.22,0,0,1-2-.71l-2.32-8A1.86,1.86,0,0,0,26.06,83L17.9,85a1.21,1.21,0,0,1-1.61-1.32l.61-8.29a1.85,1.85,0,0,0-1.65-1.93l-8.38-.83a1.2,1.2,0,0,1-1-1.78l3.44-7.59a1.81,1.81,0,0,0-.88-2.37L.8,57.28a1.19,1.19,0,0,1-.37-2l5.87-6a1.81,1.81,0,0,0,0-2.52L.42,40.81a1.19,1.19,0,0,1,.37-2l7.58-3.63a1.81,1.81,0,0,0,.87-2.37L5.79,25.21a1.2,1.2,0,0,1,1-1.78l8.38-.86a1.84,1.84,0,0,0,1.65-1.93l-.62-8.28A1.21,1.21,0,0,1,17.85,11l8.18,2a1.87,1.87,0,0,0,2.22-1.27l2.29-8a1.22,1.22,0,0,1,2-.71l7,4.66A1.88,1.88,0,0,0,42,7.32L46.93.59A1.22,1.22,0,0,1,49,.59L54,7.32a1.87,1.87,0,0,0,2.52.43l7-4.66a1.21,1.21,0,0,1,2,.7l2.31,8A1.86,1.86,0,0,0,70,13l8.16-2a1.2,1.2,0,0,1,1.6,1.32l-.6,8.29a1.84,1.84,0,0,0,1.65,1.93l8.37.84a1.19,1.19,0,0,1,1,1.78l-3.44,7.58a1.82,1.82,0,0,0,.88,2.38l7.58,3.61a1.18,1.18,0,0,1,.36,2l-2.33,2.38-2.48,2.52-1.05,1.07a1.8,1.8,0,0,0,0,2.53l5.87,5.94a1.19,1.19,0,0,1-.37,2l-3,1.44L89,60.21l-1.36.65a1.82,1.82,0,0,0-.87,2.37l3.45,7.57a1.2,1.2,0,0,1-1,1.79l-8.38.85a1.84,1.84,0,0,0-1.65,1.93l.61,8.28A1.2,1.2,0,0,1,78.14,85L70,83a1.86,1.86,0,0,0-2.22,1.26l-2.3,8a1.21,1.21,0,0,1-2,.7l-7-4.66a1.89,1.89,0,0,0-2.53.44l-4.93,6.73a1.22,1.22,0,0,1-2.09,0Z" style="fill:url(#radial-gradient)"/><path d="M64.83,45.11a3.63,3.63,0,0,0-1.74-2.48,3.55,3.55,0,0,0-.28-3,3.66,3.66,0,0,0-2.49-1.75A3.62,3.62,0,0,0,59,35.13a3.72,3.72,0,0,0-2.95-.8,3.67,3.67,0,0,0-2.18-2.13,3.73,3.73,0,0,0-3.05.24A3.72,3.72,0,0,0,48,31.17h0a3.71,3.71,0,0,0-2.79,1.26A3.69,3.69,0,0,0,40,34.3a3.7,3.7,0,0,0-3,.79,3.58,3.58,0,0,0-1.31,2.73,3.65,3.65,0,0,0-2.51,1.74,3.56,3.56,0,0,0-.29,3A3.6,3.6,0,0,0,32,48a3.57,3.57,0,0,0-.78,2.92,3.65,3.65,0,0,0,1.74,2.49,3.55,3.55,0,0,0,.28,3,3.69,3.69,0,0,0,2.49,1.75A3.6,3.6,0,0,0,37,60.87a3.75,3.75,0,0,0,2.4.87,3.64,3.64,0,0,0,.56-.05A3.73,3.73,0,0,0,43.43,64a3.74,3.74,0,0,0,1.76-.45,3.72,3.72,0,0,0,5.55,0,3.72,3.72,0,0,0,1.78.46A3.74,3.74,0,0,0,56,61.73a3.9,3.9,0,0,0,.58.05,3.75,3.75,0,0,0,2.4-.87,3.63,3.63,0,0,0,1.31-2.72,3.68,3.68,0,0,0,2.51-1.75,3.6,3.6,0,0,0,.28-3A3.64,3.64,0,0,0,64.82,51,3.58,3.58,0,0,0,64,48,3.56,3.56,0,0,0,64.83,45.11Zm-1.34,5.62A2.34,2.34,0,0,1,62,52.49a.43.43,0,0,0-.16,0,.64.64,0,0,0-.33.54v.06a.68.68,0,0,0,0,.14s0,.06,0,.09,0,0,0,0a0,0,0,0,1,0,0,2.31,2.31,0,0,1,0,2.34,2.35,2.35,0,0,1-2,1.17.5.5,0,0,0-.17,0,.69.69,0,0,0-.5.39l0,.07a.5.5,0,0,0,0,.12.43.43,0,0,0,0,.11s0,0,0,.07h0a2.32,2.32,0,0,1-.82,2.19,2.42,2.42,0,0,1-2.27.43.67.67,0,0,0-.15-.06.64.64,0,0,0-.6.2s0,0,0,.05l-.06.1s-.05.06-.06.1a.17.17,0,0,0,0,.07h0a2.39,2.39,0,0,1-3.81,1.42.69.69,0,0,0-.13-.11.66.66,0,0,0-.64,0l-.05,0-.11.08a.27.27,0,0,0-.08.07s0,0,0,.06h0A2.38,2.38,0,0,1,48,63.5a2.35,2.35,0,0,1-2-1.07.81.81,0,0,0-.1-.18.64.64,0,0,0-.59-.22h-.08l-.09,0-.13,0-.08.07a2.42,2.42,0,0,1-2.32.38,2.38,2.38,0,0,1-1.51-1.72.41.41,0,0,0,0-.16.63.63,0,0,0-.47-.41l-.08,0h-.23l-.06,0h0a2.37,2.37,0,0,1-2.33-.41A2.33,2.33,0,0,1,37,57.73a.42.42,0,0,0,0-.15.66.66,0,0,0-.31-.55l-.05,0-.13-.05a.29.29,0,0,0-.1,0h-.08a2.4,2.4,0,0,1-2-1.19,2.31,2.31,0,0,1,0-2.33s0,0,.06-.07a.62.62,0,0,0-.09-.62l0-.05a.81.81,0,0,0-.1-.09.71.71,0,0,0-.09-.07l-.06,0h0a2.36,2.36,0,0,1-1.52-1.8,2.33,2.33,0,0,1,.77-2.16l.12-.08a.67.67,0,0,0,.12-.62s0,0,0-.06a.67.67,0,0,0-.06-.12l0-.09-.06,0h0a2.33,2.33,0,0,1,.7-4s.08,0,.11,0a.65.65,0,0,0,.33-.54.13.13,0,0,0,0-.06.68.68,0,0,0,0-.14s0-.07,0-.1l0-.05v0a2.33,2.33,0,0,1,0-2.34,2.38,2.38,0,0,1,2-1.16h.18a.66.66,0,0,0,.49-.39l0-.06a.59.59,0,0,0,0-.13.44.44,0,0,0,0-.1s0,0,0-.07h0a2.31,2.31,0,0,1,.83-2.19,2.37,2.37,0,0,1,2.26-.43l.15.06h.13a.67.67,0,0,0,.49-.23l0,0a.64.64,0,0,0,.08-.14l0-.06a.2.2,0,0,0,0-.07h0a2.38,2.38,0,0,1,3.81-1.42,1.27,1.27,0,0,0,.12.1.42.42,0,0,0,.15,0h0a.43.43,0,0,0,.14,0l.08,0,.11,0a.51.51,0,0,0,.17-.07.62.62,0,0,0,.18-.14s0,0,0-.06h0A2.39,2.39,0,0,1,48,32.5h0a2.37,2.37,0,0,1,2,1.11s0,.09.08.14a.66.66,0,0,0,.6.22h.05l.14,0,.09,0,.05,0h0a2.38,2.38,0,0,1,2.34-.39,2.35,2.35,0,0,1,1.51,1.71.41.41,0,0,0,0,.16.64.64,0,0,0,.42.4l.06,0,.14,0h.16l.06,0h0a2.39,2.39,0,0,1,2.33.42A2.3,2.3,0,0,1,59,38.27a.42.42,0,0,0,0,.16.67.67,0,0,0,.31.55l0,0a.29.29,0,0,0,.13.05l.1,0h.12a2.36,2.36,0,0,1,2,1.17,2.32,2.32,0,0,1,0,2.28.57.57,0,0,0-.08.13.63.63,0,0,0,.09.62l0,0,.1.09.08.07H62a2.36,2.36,0,0,1,1.52,1.8,2.32,2.32,0,0,1-.76,2.15l-.13.1a.6.6,0,0,0-.12.61s0,0,0,.07l.07.11a.73.73,0,0,0,.05.09.1.1,0,0,0,0,0s0,0,0,0A2.31,2.31,0,0,1,63.49,50.73Z" style="fill:url(#linear-gradient)"/><path d="M90.82,55.43,89.44,54l-6-6,6-6,1.37-1.4L89,39.7,81.35,36l3.49-7.68.8-1.79-2-.19-8.5-.85.62-8.4.14-1.95L74,15.66l-8.28,2.06L63.4,9.62l-.54-1.87-1.64,1.1-7.06,4.72-5-6.82L48,5.17,46.83,6.75l-5,6.83L34.76,8.85,33.12,7.76l-.54,1.88-2.33,8.09L22,15.68,20,15.2l.15,1.95.62,8.39-8.5.86-2,.2.82,1.78,3.5,7.68L7,39.73l-1.78.86L6.57,42l5.95,6-5.95,6L5.2,55.46,7,56.31,14.67,60l-3.49,7.69-.81,1.78,2,.19,8.49.85-.61,8.4-.14,2L22,80.35l8.28-2.07,2.34,8.1.54,1.88,1.64-1.1,7.05-4.72,5,6.81L48,90.83l1.15-1.58,5-6.82,7.07,4.72,1.64,1.09.54-1.87,2.33-8.09,8.28,2,1.92.48-.14-2-.62-8.39,8.5-.86,2-.2-.81-1.78L81.35,60,89,56.28ZM84.27,56l-5-1.15.56-.34,5.12,1Zm-1.07.79-5-1.3.58-.35,5.12,1.17Zm-1.09.79-5-1.45.58-.35,5.11,1.31ZM81,58.41l-5-1.62.6-.36,5.09,1.47ZM79.3,67.75,75,65l.65-.12,4.45,2.68ZM78,68.13l-4.3-2.91.67-.13,4.4,2.81Zm-1.3.39L72.5,65.46l.68-.14,4.34,3Zm-1.3.39L71.28,65.7l.69-.14,4.27,3.1Zm-4.87,8.2L67.44,73l.64.1,3.26,4ZM69.22,77l-3-4.18.66.1L70,77.08ZM67.87,77,65,72.66l.68.1L68.7,77Zm-1.36-.07-2.78-4.42.69.11,2.94,4.35ZM63.76,79,61.4,74.3l.26-.65,2.49,4.57Zm-.6,1.18L61,75.43l.25-.63,2.32,4.62Zm-.6,1.17-2.05-4.77.24-.62,2.17,4.67ZM33.1,80.62,35.27,76l.25.62-2.05,4.77Zm-.61-1.18,2.33-4.63.25.63-2.2,4.73Zm-.61-1.2,2.48-4.58.26.65L32.27,79Zm-3.22-1.3,2.94-4.35.7-.1L29.52,76.9ZM27.33,77l3.05-4.25.68-.1L28.16,77ZM26,77.09,29.16,73l.67-.1-3,4.19Zm-1.31.08,3.25-4,.65-.09-3.11,4.07Zm-4.91-8.49,4.28-3.1.68.14-4.14,3.2ZM18.5,68.3l4.35-3,.67.14L19.3,68.54Zm-1.27-.37,4.4-2.83.66.14L18,68.15ZM16,67.55l4.45-2.69.64.13-4.34,2.79Zm-1.66-9.63,5.08-1.47.61.36-5,1.62Zm-1.08-.79,5.11-1.31.59.35-5,1.45Zm-1.06-.78,5.11-1.16.58.34-5,1.3Zm-1.06-.77,5.12-1,.56.34-5,1.15ZM11.73,40l5.05,1.14-.56.34-5.11-1Zm1.08-.8,5,1.3-.57.35-5.12-1.16Zm1.08-.79,5,1.45-.59.35L13.22,38.9ZM15,37.6l5,1.62-.61.36-5.09-1.47Zm1.72-9.34L21.05,31l-.65.12L16,28.48ZM18,27.87l4.3,2.92-.67.13-4.4-2.81Zm1.3-.38,4.22,3.06-.67.13-4.35-2.95Zm1.3-.39,4.15,3.21-.7.13-4.27-3.09Zm4.86-8.2L28.56,23l-.65-.09-3.25-4Zm1.34.07,3,4.19-.67-.1L26,18.93Zm1.35.08,2.9,4.3-.67-.11L27.3,19Zm1.36.07,2.78,4.41-.7-.1-2.94-4.36ZM32.24,17l2.35,4.68-.25.65-2.49-4.58Zm.6-1.18L35,20.58l-.25.63-2.33-4.63Zm.6-1.17,2.05,4.76-.24.62-2.18-4.67Zm29.47.7-2.17,4.67-.25-.62,2.06-4.76Zm.61,1.19L61.19,21.2,61,20.57l2.2-4.73Zm.62,1.2-2.49,4.58-.26-.65L63.75,17Zm3.21,1.29-2.94,4.36-.69.1,2.77-4.41ZM68.69,19l-3.06,4.24-.68.1,2.9-4.3ZM70,18.91l-3.15,4.14-.67.1,3-4.19Zm1.32-.07-3.26,4-.64.1,3.11-4.08Zm4.9,8.49L72,30.43l-.69-.14,4.14-3.21Zm1.28.38-4.34,3-.68-.14,4.22-3.06Zm1.27.38-4.4,2.82-.66-.14L78,27.86Zm1.26.37-4.45,2.68L75,31l4.34-2.78Zm1.66,9.63-5.09,1.47L76,39.2l5-1.62Zm1.08.79-5.11,1.31-.59-.35,5-1.45Zm1.06.78-5.11,1.17-.58-.35,5-1.3Zm1.06.78-5.12,1-.56-.34,5-1.15Zm1.11,14-5.11-.88L80.51,53l5.09.75ZM69,64.8a.65.65,0,0,0-.46.34.62.62,0,0,0-.11.32l-.15,6.36-6.38-1a.7.7,0,0,0-.35,0l-.12.06,0,0a.75.75,0,0,0-.24.29L58.8,77.22l-5.67-3a.57.57,0,0,0-.36-.07h-.09l-.1,0a.63.63,0,0,0-.31.19L48,79.1l-4.26-4.78-.1-.07,0,0-.17-.08a.38.38,0,0,0-.1,0h-.11l-.19,0,0,0-.11,0-5.66,3.06L34.87,71.3a.67.67,0,0,0-.24-.29l-.06,0-.1,0a.72.72,0,0,0-.36,0l-6.38,1-.15-6.36a.77.77,0,0,0-.12-.33.39.39,0,0,0-.08-.1L27.33,65a.76.76,0,0,0-.19-.12h0l-.12,0-6.33-1.25,2.06-6a.52.52,0,0,0,0-.37.13.13,0,0,0,0-.06.67.67,0,0,0-.06-.12.63.63,0,0,0-.23-.26l-5.52-3.3,4-5a.63.63,0,0,0,.13-.35V48a.3.3,0,0,0,0-.13.59.59,0,0,0-.13-.32l-4-5,5.52-3.32a.65.65,0,0,0,.24-.28l0-.06a.53.53,0,0,0,0-.12.6.6,0,0,0,0-.35l-2.07-6L27,31.21a.61.61,0,0,0,.33-.19s0,0,0,0l.08-.1a.65.65,0,0,0,.11-.33l.14-6.36,6.39,1A.74.74,0,0,0,34.6,25h0a.55.55,0,0,0,.18-.22s.06-.05.07-.08l2.35-5.93,5.67,3.06a.68.68,0,0,0,.37.06h.07l.12,0a.64.64,0,0,0,.3-.19L48,16.9l4.27,4.78a.65.65,0,0,0,.33.19l.1,0,.08,0h0a.66.66,0,0,0,.33-.07l5.66-3,2.35,5.93s.06.06.08.09a.48.48,0,0,0,.09.11.68.68,0,0,0,.12.12.65.65,0,0,0,.47.1l6.39-1,.15,6.37a.62.62,0,0,0,.12.35l0,.05.09.09a.67.67,0,0,0,.31.17l6.33,1.25-2.06,6a.59.59,0,0,0,0,.37.64.64,0,0,1,0,.07l0,.1a.69.69,0,0,0,.24.27l5.52,3.3-4,5a.68.68,0,0,0-.13.35.22.22,0,0,0,0,.08.41.41,0,0,0,0,.11.68.68,0,0,0,.13.33l4,5-5.52,3.32a.57.57,0,0,0-.24.27l0,.08,0,.1a.73.73,0,0,0,0,.36l2.07,6ZM73.1,75.7l-3.46-3.86,0-.64,3.53,3.73Zm-3.47-3.27,3.4,3.8L73,77l-3.34-3.91Zm0-1.8V70l3.67,3.66-.1.79Zm0-1.22v-.68l3.8,3.56-.1.82Zm0-1.22V67.5L73.67,71l-.11.84Zm4.07,1.68-.07.61-4-3.5,0-.75,4.11,3.41A.63.63,0,0,0,73.8,69.87ZM61.38,83.62l-1.77-4.79.23-.59L61.72,83ZM34.31,83l1.88-4.71.23.59-1.77,4.79ZM23,76.24l3.41-3.8v.63L23.08,77Zm-.77-6.36a.63.63,0,0,0-.07-.22l4.1-3.38,0,.71-4,3.51Zm.13,1.1,3.93-3.47v.7l-3.83,3.61Zm.17,1.33,3.79-3.56v.67l-3.71,3.71Zm.16,1.32L26.34,70v.66l-3.58,3.79ZM22.84,75l3.53-3.74v.65l-3.45,3.85Zm.06-54.64,3.46,3.86,0,.64-3.53-3.73Zm3.47,3.27L23,19.78l.08-.74L26.39,23Zm0,1.8V26l-3.67-3.65.1-.79Zm0,1.22v.68l-3.8-3.57.1-.81Zm0,1.21v.7l-3.93-3.46.1-.84ZM22.2,26.14l.07-.61,4,3.5v.74l-4.11-3.4A.63.63,0,0,0,22.2,26.14ZM34.61,12.38l1.78,4.8-.24.58L34.27,13Zm27.1.66-1.88,4.72-.23-.59,1.77-4.8ZM73.79,26.12a.88.88,0,0,0,.07.23l-4.1,3.37V29l4-3.51Zm-.61-5.06L69.65,24.8l0-.65,3.46-3.85Zm.48,4-3.93,3.46V27.8l3.84-3.61Zm-.16-1.34-3.79,3.57,0-.68,3.71-3.7Zm-.16-1.32L69.68,26l0-.67,3.58-3.78ZM73,19.77l-3.4,3.8,0-.63L72.93,19Zm7.11,32.79-.4-.5,5.14.62.43.64Zm-.77-1-.42-.52,5.19.48.45.67Zm-.77-1-.43-.53,5.23.33.46.69Zm-.77-.95-.44-.54,5.26.16.47.71Zm-.77-1-.48-.58h5.37a.5.5,0,0,0,.09.23l.34.51Zm5-1.18a.67.67,0,0,0-.09.21H76.6l.45-.55,5.32-.17Zm.61-.93-5.26.17.44-.54,5.3-.34Zm.75-1.12-5.23.33.43-.53,5.26-.49Zm.74-1.11-5.19.48.42-.52,5.22-.63Zm.73-1.11-5.14.62.41-.5,5.16-.76ZM80.5,43l.4-.49L86,41.59l-.42.63Zm5.44-1.77-5.11.89-.54-.33,5-1ZM75.56,38.93l-.65-.39,5-1.8a.7.7,0,0,0,.16.19l.5.36Zm4.27-2.8a.65.65,0,0,0,0,.24l-5,1.79.23-.67,5-2Zm.26-1.07L75.2,37l.22-.66,4.86-2.09Zm.31-1.31-4.8,2.07.22-.63L80.59,33Zm.31-1.29L76,34.66l.21-.63,4.68-2.35Zm.3-1.29L76.4,33.49l.21-.61,4.58-2.46ZM76.8,32.32l.2-.59,4.49-2.56-.17.73Zm4.49-3.49L76.8,31.38l-.63-.12,4.39-2.65ZM70.75,30.19,70,30l4.11-3.39a.94.94,0,0,0,.22.12l.6.17Zm1.87-11.42-3.33,3.91-.63.09,3.21-4ZM63.19,23.6l-.75.11,2.69-4.57a.69.69,0,0,0,.25,0l.62,0Zm1.45-4.85a1.33,1.33,0,0,0,.14.19l-2.67,4.55-.27-.66,2.52-4.63Zm-4.35.15L60,18.3,62,13.51l.35.69Zm.7-6.67L59.22,17l-.56.3,1.63-4.8Zm-2.85,5.39-.58.31L59.07,13l.73-.3Zm-1.09.58-.59.32,1.38-4.95.75-.32ZM56,18.78l-.6.33,1.23-5,.77-.32Zm-1.08.59-.62.33,1.08-5.08.79-.33ZM53.8,20l-.66.36.94-5.2a1.11,1.11,0,0,0,.25,0l.56-.25Zm-.32-5a.86.86,0,0,0,.2.13l-.93,5.18-.48-.53.76-5.2Zm-1.56,4.38-.47-.52L52,13.58l.63.57Zm-.83-.92-.45-.51.43-5.19.6.56Zm-.82-.92-.45-.5.28-5.17.59.54Zm-.83-.93L49,16l.13-5.14.57.53Zm-.82-.93-.43-.47V10l.56.51ZM47.79,10v5.1l-.42.47-.13-5.06ZM47,16l-.44.49-.27-5.1.57-.53Zm-.82.92-.44.5-.43-5.12.59-.55Zm-.81.91-.46.51-.58-5.13.61-.57Zm-.82.92-.47.52-.74-5.14.62-.58Zm-.82.91-.49.56L42.29,15a.71.71,0,0,0,.22-.13L43,14.5Zm-2.05-4.63a.68.68,0,0,0,.23,0l.92,5.19L42.18,20l-1.09-5.15Zm.06,4.65-.62-.34-1.26-5.08.79.33Zm-1.1-.6-.6-.32-1.4-5,.76.32Zm-1.09-.58-.6-.32-1.54-5,.75.31Zm-1.11-.6-.57-.31-1.66-4.87.72.3Zm-1.09-.59-.56-.3L35,12.24l.7.3ZM34,13.52l1.91,4.79-.24.6-2-4.7Zm.11,9.32-.27.7L31.19,19a.78.78,0,0,0,.16-.2l.28-.54Zm-3.53-3.66a.45.45,0,0,0,.23,0l2.67,4.57-.71-.11L30,19.15Zm-3.28,3.61-.64-.1-3.33-3.9.76,0Zm-5.68,4a.68.68,0,0,0,.21-.1L26,30.07l-.7.13L21.05,27Zm-1.83,4.5-.63.12-4.48-2.55.72-.22ZM14.5,29.2,19,31.75l.21.59-4.52-2.42Zm4.89,3.7.21.61L15,31.2l-.18-.76Zm.39,1.15.22.63-4.71-2.2-.19-.78Zm.4,1.15.22.64-4.8-2.06L15.41,33Zm.4,1.15.22.66-4.89-1.93-.19-.82ZM21,37.51l.24.7-5-1.81a.7.7,0,0,0,0-.25L16,35.56Zm-5.09-.57a.87.87,0,0,0,.16-.17l5,1.81-.61.37-5.07-1.64Zm-.16,4.84-.55.33-5.1-.88.6-.45ZM10,41.62l5.1.88.4.49-5.09-.75Zm5.87,1.83.41.5-5.14-.61-.43-.65Zm.77.95.42.52-5.19-.48-.44-.67Zm.78,1,.43.53-5.23-.33-.46-.69Zm.77.95.44.54-5.27-.16L12.89,46Zm.77,1,.47.58H14.07a.77.77,0,0,0-.1-.23l-.34-.51Zm-5,1.18a.51.51,0,0,0,.1-.21h5.34l-.45.55L13.63,49Zm-.61.93,5.27-.17-.44.54-5.3.34Zm-.75,1.12,5.24-.33-.43.53-5.26.49Zm-.73,1.12,5.19-.49-.43.52-5.21.64Zm-.74,1.1,5.14-.62-.4.5-5.16.77Zm4.37.34-.41.49-5.1.89.42-.63Zm-5.44,1.77,5.11-.89.54.33-5,1Zm10.38,2.27.65.39-5.05,1.8a.58.58,0,0,0-.17-.18l-.49-.37Zm-4.27,2.8a.65.65,0,0,0,0-.24l5-1.79-.23.67-4.95,2ZM15.92,61,20.81,59l-.22.66-4.86,2.09Zm-.31,1.31,4.8-2.07-.22.63-4.77,2.24Zm-.31,1.29L20,61.35,19.8,62l-4.68,2.35ZM15,64.84l4.61-2.32-.21.61-4.58,2.46Zm4.21-1.15-.2.59-4.48,2.56.17-.73Zm-4.48,3.49,4.48-2.55.63.12L15.45,67.4Zm10.54-1.36L26,66l-4.12,3.4a.78.78,0,0,0-.22-.12l-.59-.17ZM23.39,77.24l3.33-3.91.63-.1-3.2,4Zm9.43-4.83.75-.12-2.69,4.58a.69.69,0,0,0-.25,0l-.62,0Zm-1.45,4.84a.49.49,0,0,0-.14-.18l2.68-4.56.26.66-2.51,4.64Zm4.36-.14.24.59-1.91,4.79-.35-.69ZM35,83.77,36.8,79l.56-.3-1.64,4.81Zm2.85-5.38.58-.31L36.94,83l-.72.31ZM39,77.8l.6-.32-1.39,5-.74.31Zm1.09-.58.6-.33-1.23,5-.77.33Zm1.08-.59.62-.33-1.08,5.08-.79.34Zm1.08-.58.65-.35-.94,5.2a.86.86,0,0,0-.23,0l-.57.24Zm.3,5a.69.69,0,0,0-.2-.13l.94-5.18.48.53L43,81.51Zm1.57-4.38.46.52L44,82.42l-.63-.57Zm.82.92.46.51-.43,5.19-.61-.57Zm.83.92.44.5-.27,5.17-.59-.54Zm.83.93L47,80l-.13,5.14-.58-.53Zm.82.93.42.47V86l-.55-.52ZM48.21,86V80.88l.42-.47.13,5.06ZM49,80l.44-.49.27,5.1-.58.53Zm.82-.92.44-.5.42,5.13-.59.54Zm.81-.91.46-.51.58,5.13-.61.57Zm.82-.91.46-.53.75,5.14-.63.58Zm.81-.92.5-.56L53.71,81a.71.71,0,0,0-.22.13l-.45.42Zm2,4.63a.86.86,0,0,0-.23,0l-.92-5.18.64.34,1.09,5.14Zm0-4.64.62.33,1.25,5.08-.79-.33Zm1.1.59.6.32,1.4,5-.76-.32Zm1.09.59.59.32,1.54,5-.74-.32Zm1.1.59.58.31,1.66,4.88L59.09,83Zm1.1.59.56.31L61,83.76l-.69-.29ZM62,82.48,60.06,77.7l.24-.61,2,4.7Zm-.12-9.32.28-.69,2.67,4.58a.9.9,0,0,0-.15.19l-.28.55Zm3.54,3.66a1,1,0,0,0-.24,0l-2.66-4.56.71.11L66,76.86Zm3.28-3.6.63.09,3.33,3.91-.75,0Zm5.68-4a.68.68,0,0,0-.21.1l-4.09-3.39.7-.14,4.19,3.25Zm1.83-4.5.63-.12,4.48,2.55-.72.21Zm5.32,2.08L77,64.26l-.21-.59,4.52,2.42Zm-4.89-3.7-.21-.61L81,64.82l.18.75ZM76.22,62,76,61.33l4.71,2.2.19.78Zm-.4-1.15-.22-.65,4.8,2.08.19.8Zm-.39-1.16L75.2,59l4.89,1.93.2.82ZM75,58.5l-.24-.7,5,1.81a.7.7,0,0,0,0,.25l.14.59Zm5.1.57a.52.52,0,0,0-.16.17l-5-1.81.61-.37,5.07,1.64Zm.16-4.84.55-.33,5.1.89-.61.44Z" style="fill:url(#linear-gradient-2)"/><path d="M71.33,60.5l-3.58-2-1-3.75L70,52.48l4.08.71h.12a.66.66,0,0,0,.11-1.32l-4.07-.7L67.93,48l2.26-3.18,4.07-.71a.67.67,0,0,0,.55-.77A.68.68,0,0,0,74,42.8L70,43.51l-3.22-2.22,1-3.76,3.59-2a.65.65,0,0,0,.24-.9.68.68,0,0,0-.92-.25l-3.58,2-3.81-1-.34-3.87,2.66-3.12a.66.66,0,0,0-.09-.94.67.67,0,0,0-.94.09l-2.66,3.12L58,31l-1.67-3.52,1.42-3.83a.65.65,0,0,0-.4-.85.69.69,0,0,0-.87.4L55,27l-3.57,1.64-2.79-2.75V21.85a.68.68,0,0,0-1.35,0v4.08l-2.78,2.74L41,27,39.55,23.2a.69.69,0,0,0-.86-.4.67.67,0,0,0-.41.85l1.42,3.84L38,31l-3.93-.34-2.66-3.12a.69.69,0,0,0-.95-.09.66.66,0,0,0-.08.94l2.66,3.12-.34,3.87-3.81,1-3.59-2a.67.67,0,1,0-.67,1.15l3.59,2,1,3.74-3.23,2.23L22,42.82a.66.66,0,1,0-.23,1.3l4.08.71L28.08,48l-2.26,3.18-4.07.71a.66.66,0,0,0-.55.77.67.67,0,0,0,.66.55H22l4.08-.71,3.23,2.22-1,3.75-3.59,2.05a.65.65,0,0,0-.24.9.67.67,0,0,0,.58.33.72.72,0,0,0,.34-.09l3.58-2,3.81,1,.34,3.87-2.66,3.13a.65.65,0,0,0,.09.93.64.64,0,0,0,.43.16.69.69,0,0,0,.52-.24l2.66-3.13L38.05,65l1.67,3.52-1.41,3.84a.66.66,0,0,0,.4.85.85.85,0,0,0,.23,0,.68.68,0,0,0,.63-.44L41,69l3.57-1.64,2.78,2.74v4.07a.68.68,0,0,0,1.35,0V70.08l2.78-2.75L55,69l1.41,3.83a.68.68,0,0,0,.63.44.59.59,0,0,0,.23,0,.67.67,0,0,0,.41-.85L56.3,68.52,58,65l3.92.34,2.66,3.12a.69.69,0,0,0,.52.24.66.66,0,0,0,.43-.16.65.65,0,0,0,.08-.93l-2.65-3.12.34-3.87,3.8-1,3.59,2a.66.66,0,0,0,.33.09.69.69,0,0,0,.59-.34A.66.66,0,0,0,71.33,60.5Zm-8.87-1,0,0h0a.45.45,0,0,0-.21.12h0a.49.49,0,0,0-.16.19s0,.05,0,.08A.88.88,0,0,0,62,60v0L61.62,64l-4-.34h-.09a.64.64,0,0,0-.2,0l-.09,0a.46.46,0,0,0-.13.08l-.06.06A1.1,1.1,0,0,0,57,64h0l-1.69,3.59-3.64-1.68h-.06a.59.59,0,0,0-.23,0h0a.62.62,0,0,0-.23,0L51,66l-.13.08,0,0L48,68.86l-2.84-2.79h0L45,66l-.07,0-.1,0-.16,0h0a.6.6,0,0,0-.22.06h0l-3.64,1.67L39.07,64l0,0,0,0a.67.67,0,0,0-.61-.31h0l-4,.35-.35-3.94v0s0,0,0-.05a.84.84,0,0,0-.07-.19s0,0,0,0a.54.54,0,0,0-.14-.16l-.1-.06a.43.43,0,0,0-.12-.05l0,0-3.88-1,1-3.82v-.11a.5.5,0,0,0,0-.17,1,1,0,0,0,0-.1.5.5,0,0,0-.05-.13.58.58,0,0,0-.1-.12.46.46,0,0,0-.07-.07l0,0-3.29-2.27,2.3-3.24a0,0,0,0,0,0,0s0,0,0-.07a1,1,0,0,0,.06-.16.41.41,0,0,0,0-.11.66.66,0,0,0,0-.14s0-.09,0-.13l-.05-.1a0,0,0,0,0,0,0l-2.3-3.23,3.29-2.28,0,0s0,0,.05-.05a1.49,1.49,0,0,0,.12-.14s0-.06,0-.09,0-.09,0-.14a.75.75,0,0,0,0-.15.34.34,0,0,0,0-.1v0l-1-3.81,3.88-1,.05,0,.09-.05a.47.47,0,0,0,.12-.07l.09-.1a.47.47,0,0,0,.06-.09.94.94,0,0,0,.06-.15s0,0,0-.08,0,0,0,0L34.39,32l4,.35h.09a.69.69,0,0,0,.29-.07l.06,0a.64.64,0,0,0,.22-.24s0,0,0,0l1.69-3.58,3.65,1.67h.1a.58.58,0,0,0,.18,0l.1,0a.58.58,0,0,0,.14,0l.14-.08.08-.05s0,0,0,0L48,27.14l2.84,2.79,0,0s0,0,0,0a.64.64,0,0,0,.18.1l.07,0,.15,0h0l.14,0,.11,0h0l3.63-1.68L56.94,32l0,0a.66.66,0,0,0,.21.23l.08.05a.71.71,0,0,0,.26.07h.11l4-.34L62,36a0,0,0,0,1,0,0v0a1.07,1.07,0,0,0,.07.19l.05.06a.45.45,0,0,0,.11.13l.09.05.12.06,0,0,3.87,1-1,3.82v.07a.77.77,0,0,0,0,.21l0,.07a.58.58,0,0,0,.06.17l.09.09a.73.73,0,0,0,.08.09l0,0,3.29,2.26-2.3,3.25,0,0a0,0,0,0,0,0,0,.5.5,0,0,0-.08.2s0,0,0,0a.67.67,0,0,0,0,.2l0,.1a.52.52,0,0,0,.06.13s0,0,0,0l2.3,3.24-3.29,2.27,0,0h0a.52.52,0,0,0-.15.18l0,0a.62.62,0,0,0-.07.19.49.49,0,0,0,0,.12.56.56,0,0,0,0,.13v0l1,3.82Z" style="fill:url(#linear-gradient-3)"/></g></g></svg>