<svg xmlns="http://www.w3.org/2000/svg" xmlns:xlink="http://www.w3.org/1999/xlink" viewBox="0 0 85.63 85.66"><defs><radialGradient id="radial-gradient" cx="181.34" cy="41.2" r="197.52" gradientTransform="translate(0.42 0.99) scale(0.99 0.98)" gradientUnits="userSpaceOnUse"><stop offset="0.01" stop-color="#104073"/><stop offset="0.43" stop-color="#0e3e70"/><stop offset="0.75" stop-color="#0a3766"/><stop offset="1" stop-color="#032e59"/></radialGradient><linearGradient id="linear-gradient" x1="12.14" y1="11.48" x2="91.96" y2="93.07" gradientUnits="userSpaceOnUse"><stop offset="0" stop-color="#e7aa39"/><stop offset="0.23" stop-color="#f7fc97"/><stop offset="0.45" stop-color="#e7aa39"/><stop offset="1" stop-color="#632507"/></linearGradient><linearGradient id="linear-gradient-2" x1="12.15" y1="11.48" x2="91.96" y2="93.06" xlink:href="#linear-gradient"/><linearGradient id="linear-gradient-3" x1="12.14" y1="11.48" x2="91.96" y2="93.06" xlink:href="#linear-gradient"/></defs><g id="Calque_2" data-name="Calque 2"><g id="OBJECTS"><path d="M37.86,76.65a1.57,1.57,0,0,0-2.1-.37L30,80.15a1,1,0,0,1-1.63-.58l-1.92-6.64a1.54,1.54,0,0,0-1.85-1L17.8,73.58a1,1,0,0,1-1.33-1.1l.5-6.89A1.52,1.52,0,0,0,15.6,64l-7-.69a1,1,0,0,1-.87-1.49l2.86-6.3a1.5,1.5,0,0,0-.73-2l-6.3-3a1,1,0,0,1-.3-1.68l4.87-5a1.5,1.5,0,0,0,0-2.1L3.28,36.86a1,1,0,0,1,.3-1.69l6.3-3a1.51,1.51,0,0,0,.73-2L7.74,23.89a1,1,0,0,1,.87-1.48l7-.71a1.52,1.52,0,0,0,1.36-1.61l-.51-6.88a1,1,0,0,1,1.33-1.1l6.8,1.69a1.55,1.55,0,0,0,1.84-1.05l1.9-6.64a1,1,0,0,1,1.64-.59l5.8,3.87A1.55,1.55,0,0,0,37.83,9l4.1-5.6a1,1,0,0,1,1.73,0L47.77,9a1.56,1.56,0,0,0,2.1.37l5.79-3.88a1,1,0,0,1,1.63.58l1.92,6.65a1.55,1.55,0,0,0,1.85,1l6.78-1.69a1,1,0,0,1,1.33,1.1l-.5,6.89A1.52,1.52,0,0,0,70,21.68l7,.7a1,1,0,0,1,.87,1.48L75,30.16a1.52,1.52,0,0,0,.73,2l6.3,3a1,1,0,0,1,.31,1.69l-1.94,2-2.07,2.1-.87.89a1.49,1.49,0,0,0,0,2.09l4.88,4.94a1,1,0,0,1-.3,1.69l-2.5,1.2L76.88,53l-1.13.54a1.5,1.5,0,0,0-.73,2l2.86,6.29A1,1,0,0,1,77,63.26l-7,.71a1.53,1.53,0,0,0-1.37,1.61l.51,6.87a1,1,0,0,1-1.33,1.1l-6.79-1.68a1.57,1.57,0,0,0-1.85,1l-1.9,6.63a1,1,0,0,1-1.64.59l-5.8-3.87a1.55,1.55,0,0,0-2.09.36l-4.1,5.6a1,1,0,0,1-1.74,0Z" style="fill:url(#radial-gradient)"/><path d="M59.64,39.94a3.65,3.65,0,0,0-1.73-2.48,3.62,3.62,0,0,0-.28-3,3.7,3.7,0,0,0-2.5-1.75A3.62,3.62,0,0,0,53.82,30a3.75,3.75,0,0,0-3-.8A3.64,3.64,0,0,0,48.69,27a3.73,3.73,0,0,0-3,.24A3.71,3.71,0,0,0,42.85,26h0a3.69,3.69,0,0,0-2.78,1.26A3.72,3.72,0,0,0,37,27a3.63,3.63,0,0,0-2.18,2.12,3.72,3.72,0,0,0-3,.79,3.65,3.65,0,0,0-1.31,2.73A3.65,3.65,0,0,0,28,34.39a3.56,3.56,0,0,0-.29,3A3.64,3.64,0,0,0,26,39.88a3.58,3.58,0,0,0,.78,2.92A3.57,3.57,0,0,0,26,45.72a3.65,3.65,0,0,0,1.74,2.49,3.55,3.55,0,0,0,.28,3A3.73,3.73,0,0,0,30.51,53a3.59,3.59,0,0,0,1.3,2.73,3.77,3.77,0,0,0,2.4.87,3.43,3.43,0,0,0,.56,0A3.67,3.67,0,0,0,37,58.63a3.62,3.62,0,0,0,1.29.23A3.81,3.81,0,0,0,40,58.41a3.7,3.7,0,0,0,5.54,0,3.73,3.73,0,0,0,1.79.46,3.74,3.74,0,0,0,3.46-2.32,3.79,3.79,0,0,0,.58,0,3.74,3.74,0,0,0,2.39-.87A3.56,3.56,0,0,0,55.08,53a3.66,3.66,0,0,0,2.51-1.75,3.56,3.56,0,0,0,.29-3,3.58,3.58,0,0,0,1-5.4A3.59,3.59,0,0,0,59.64,39.94Zm-1.33,5.62a2.35,2.35,0,0,1-1.46,1.76.49.49,0,0,0-.16,0,.69.69,0,0,0-.33.54V48a.68.68,0,0,0,0,.14s0,.06,0,.09,0,0,0,0a0,0,0,0,0,0,0,2.33,2.33,0,0,1,0,2.34,2.38,2.38,0,0,1-2,1.17.49.49,0,0,0-.17,0,.68.68,0,0,0-.49.39.15.15,0,0,0,0,.07.53.53,0,0,0,0,.12s0,.07,0,.11a.25.25,0,0,0,0,.07h0a2.31,2.31,0,0,1-.83,2.19,2.41,2.41,0,0,1-2.27.43.52.52,0,0,0-.15-.06.63.63,0,0,0-.59.2.12.12,0,0,0,0,.05.61.61,0,0,0-.07.1l-.06.1s0,.05,0,.07h0a2.39,2.39,0,0,1-3.81,1.42.69.69,0,0,0-.13-.11.64.64,0,0,0-.63,0l-.06,0A.39.39,0,0,0,45,57a.31.31,0,0,0-.09.07.33.33,0,0,0,0,.06h0a2.4,2.4,0,0,1-4.05.09.76.76,0,0,0-.09-.18.69.69,0,0,0-.6-.22H40l-.08,0-.14,0-.07.07a2.42,2.42,0,0,1-2.32.38,2.36,2.36,0,0,1-1.51-1.72c0-.06,0-.11,0-.16a.64.64,0,0,0-.48-.41l-.07,0h-.24l-.06,0h0a2.39,2.39,0,0,1-2.34-.41,2.3,2.3,0,0,1-.82-2.13.8.8,0,0,0,0-.15.63.63,0,0,0-.31-.55l0,0-.13,0-.09,0a.16.16,0,0,0-.07,0h0a2.38,2.38,0,0,1-2.05-1.19,2.31,2.31,0,0,1,0-2.33l.07-.07a.65.65,0,0,0-.1-.62l0-.05a.43.43,0,0,0-.1-.09l-.08-.07-.07,0h0a2.34,2.34,0,0,1-1.51-1.8,2.3,2.3,0,0,1,.76-2.16.5.5,0,0,0,.12-.08.67.67,0,0,0,.12-.62s0,0,0-.06a.75.75,0,0,0-.07-.12l0-.09a.1.1,0,0,1-.05,0h0a2.33,2.33,0,0,1,.69-4s.08,0,.12,0a.7.7,0,0,0,.33-.54V37.7a.68.68,0,0,0,0-.14s0-.07,0-.1,0,0,0-.05v0a2.31,2.31,0,0,1,0-2.34,2.35,2.35,0,0,1,2-1.16h.18a.67.67,0,0,0,.5-.39.14.14,0,0,1,0-.06.61.61,0,0,0,0-.13s0-.07,0-.1a.19.19,0,0,0,0-.07h0a2.31,2.31,0,0,1,.83-2.19A2.39,2.39,0,0,1,35,30.51a.52.52,0,0,0,.15.06h.12a.65.65,0,0,0,.49-.23l0,0a.67.67,0,0,0,.09-.14l0-.06v-.07a0,0,0,0,0,0,0,2.39,2.39,0,0,1,3.82-1.42,1.27,1.27,0,0,0,.12.1.37.37,0,0,0,.15,0h0a.42.42,0,0,0,.15,0l.07,0,.11,0a.51.51,0,0,0,.17-.07.85.85,0,0,0,.19-.14l0-.06h0a2.36,2.36,0,0,1,2.06-1.16h0a2.38,2.38,0,0,1,2,1.11s0,.09.07.14a.67.67,0,0,0,.61.22h.05l.13-.05a.38.38,0,0,0,.1,0l.05,0h0a2.39,2.39,0,0,1,2.34-.39A2.33,2.33,0,0,1,49.74,30a.41.41,0,0,0,0,.16.64.64,0,0,0,.42.4l.06,0,.15,0h.16l.06,0h0A2.42,2.42,0,0,1,53,31a2.32,2.32,0,0,1,.82,2.12.76.76,0,0,0,0,.16.64.64,0,0,0,.3.55l.06,0a.31.31,0,0,0,.12,0l.1,0h.13a2.36,2.36,0,0,1,2,1.17,2.32,2.32,0,0,1,0,2.28.38.38,0,0,0-.09.13.66.66,0,0,0,.1.62l0,0,.11.09a.29.29,0,0,0,.08.07h.07a2.36,2.36,0,0,1,1.52,1.8,2.32,2.32,0,0,1-.76,2.15l-.13.1a.65.65,0,0,0-.12.61.14.14,0,0,0,0,.07.6.6,0,0,0,.06.11.73.73,0,0,0,0,.09l.05,0,0,0A2.33,2.33,0,0,1,58.31,45.56Z" style="fill:url(#linear-gradient)"/><path d="M85.63,50.26l-1.38-1.4-6-6,6-6,1.38-1.4-1.79-.85-7.68-3.66,3.49-7.68.81-1.79-2-.19L70,20.36l.62-8.4.14-2-1.92.48-8.28,2.06-2.34-8.1-.54-1.87L56,3.68,49,8.4,44,1.58,42.8,0,41.64,1.58l-5,6.83L29.57,3.68,27.93,2.59l-.54,1.88-2.32,8.09-8.29-2.05L14.86,10,15,12l.63,8.39-8.5.86-2,.2L6,23.21l3.5,7.68L1.78,34.56,0,35.42l1.38,1.39,6,6-5.94,6L0,50.29l1.78.85L9.48,54.8,6,62.49l-.81,1.78,2,.19,8.5.85L15,73.71l-.14,2,1.91-.48,8.28-2.07,2.34,8.1L28,83.09,29.61,82l7-4.72,5,6.81,1.16,1.58L44,84.08l5-6.82L56.05,82l1.64,1.09.54-1.87,2.33-8.09,8.29,2,1.92.48-.15-2L70,65.3l8.5-.86,2-.2-.81-1.78-3.5-7.68,7.69-3.67Zm-6.55.59L74,49.7l.56-.34,5.11,1ZM78,51.64l-5-1.3.57-.35,5.12,1.17Zm-1.08.79L71.9,51l.59-.35,5.11,1.31Zm-1.09.81-5-1.62.6-.36,5.1,1.47Zm-1.73,9.34L69.77,59.8l.64-.12,4.45,2.68ZM72.83,63l-4.29-2.91.66-.13,4.4,2.81Zm-1.29.39-4.22-3.06.67-.14,4.35,3Zm-1.31.39-4.14-3.21.69-.14,4.27,3.1Zm-4.86,8.2-3.12-4.08.65.1,3.25,4ZM64,71.86l-3-4.18.67.1,3.16,4.13Zm-1.35-.07-2.9-4.3.68.1,3,4.25Zm-1.36-.07L58.54,67.3l.7.11,2.94,4.35Zm-2.75,2.09-2.35-4.68.25-.65L59,73.05ZM58,75l-2.2-4.73.25-.63,2.33,4.62Zm-.6,1.17-2-4.77.25-.62,2.17,4.67Zm-29.45-.71,2.17-4.67.24.62-2,4.77Zm-.61-1.18,2.32-4.63.25.63L27.68,75Zm-.62-1.2,2.49-4.58.26.65-2.36,4.68Zm-3.21-1.3,2.94-4.35.69-.1-2.77,4.41Zm-1.34.08L25.2,67.6l.68-.1L23,71.8Zm-1.32.07L24,67.79l.67-.1-3,4.19ZM19.5,72l3.26-4,.64-.09L20.29,72Zm-4.9-8.49,4.27-3.1.69.14-4.14,3.2Zm-1.29-.38,4.35-3,.67.14-4.22,3.06ZM12,62.76l4.41-2.83.66.14L12.82,63Zm-1.26-.38,4.46-2.68.64.12-4.34,2.79ZM9.12,52.75l5.09-1.47.6.36-5,1.62ZM8,52l5.12-1.31.58.35-5,1.45ZM7,51.18,12.1,50l.58.34-5,1.3Zm-1.05-.77,5.11-1,.56.34-5,1.15Zm.62-15.58L11.6,36l-.56.34-5.12-1ZM7.62,34l5.05,1.3-.58.35L7,34.52Zm1.08-.79,5,1.45-.58.35L8,33.73Zm1.09-.81,5,1.62-.6.36L9.1,32.94Zm1.72-9.34,4.35,2.78-.64.12-4.45-2.68Zm1.29-.39,4.29,2.92-.66.13L12,22.94Zm1.29-.38,4.22,3.06-.67.13-4.35-3Zm1.31-.39,4.14,3.21-.69.14-4.28-3.1Zm4.86-8.2,3.12,4.07-.65-.09-3.25-4Zm1.34.07,3,4.19-.67-.1-3.17-4.13Zm1.34.08,2.91,4.3-.68-.11-3.06-4.24Zm1.37.07,2.78,4.41-.7-.1L23.45,13.9Zm2.74-2.09,2.36,4.68-.26.65-2.49-4.58Zm.6-1.18,2.2,4.73L29.6,16l-2.32-4.63Zm.6-1.17,2.05,4.76-.24.62-2.17-4.67Zm29.48.7-2.17,4.67-.25-.62,2-4.76Zm.61,1.19L56,16l-.25-.63L58,10.67ZM59,12.6l-2.49,4.58-.25-.65,2.35-4.69Zm3.21,1.29-2.94,4.36-.69.1,2.78-4.41Zm1.34-.07-3,4.24-.69.1,2.91-4.29Zm1.33-.08-3.16,4.14L61,18l3-4.19Zm1.31-.07-3.25,4-.65.1,3.11-4.08ZM71,22.16l-4.27,3.1-.69-.14,4.14-3.21Zm1.29.38L68,25.5l-.67-.14,4.22-3.06Zm1.27.38-4.4,2.82-.67-.14,4.29-2.91Zm1.26.37L70.4,26l-.64-.12,4.34-2.78Zm1.66,9.63-5.09,1.47-.6-.36,5-1.62Zm1.07.79L72.48,35l-.58-.35,5-1.45Zm1.06.78-5.11,1.17L73,35.31,78,34Zm1.06.78-5.12,1L74,36l5-1.15Zm1.11,13.95-5.1-.88-.4-.49,5.09.75Zm-17,10.41a.67.67,0,0,0-.46.34.6.6,0,0,0-.1.32l-.15,6.36-6.39-1a.66.66,0,0,0-.34,0l-.13.06,0,0a.7.7,0,0,0-.25.29l-2.34,5.93L48,69a.62.62,0,0,0-.37-.07H47.5l-.11,0a.73.73,0,0,0-.31.19l-4.26,4.78-4.27-4.78-.09-.07,0,0a.8.8,0,0,0-.16-.08l-.11,0H38l-.18,0,0,0-.12,0L32,72.06l-2.35-5.93a.75.75,0,0,0-.24-.29l-.06,0-.11,0a.7.7,0,0,0-.35,0l-6.39,1-.15-6.36a.58.58,0,0,0-.12-.33.39.39,0,0,0-.08-.1l-.05-.06A.45.45,0,0,0,22,59.7h0a.43.43,0,0,0-.12,0l-6.33-1.25,2.07-6a.67.67,0,0,0,0-.37.14.14,0,0,0,0-.06.61.61,0,0,0-.05-.12.74.74,0,0,0-.24-.26l-5.51-3.3,4-5a.56.56,0,0,0,.13-.35.13.13,0,0,0,0-.06.62.62,0,0,0,0-.13.68.68,0,0,0-.13-.32l-4-5,5.52-3.32a.67.67,0,0,0,.25-.28s0,0,0-.06a.56.56,0,0,0,0-.12.7.7,0,0,0,0-.35l-2.07-6L21.81,26a.61.61,0,0,0,.34-.19l0,0,.07-.1a.65.65,0,0,0,.11-.33L22.52,19l6.39,1a.73.73,0,0,0,.5-.13h0a.67.67,0,0,0,.18-.22s0-.05.06-.08L32,13.61l5.67,3.06a.69.69,0,0,0,.37.06h.07l.12,0a.64.64,0,0,0,.3-.19l4.27-4.78,4.27,4.78a.59.59,0,0,0,.32.19l.1,0,.08,0h0a.6.6,0,0,0,.32-.07l5.66-3.05L56,19.54s.06.06.08.09l.09.11a.68.68,0,0,0,.12.12.67.67,0,0,0,.48.1l6.38-1,.15,6.37a.63.63,0,0,0,.13.35l0,.05.08.09a.71.71,0,0,0,.32.17l6.33,1.25-2.07,6a.67.67,0,0,0,0,.37.25.25,0,0,0,0,.07.24.24,0,0,0,.05.1.6.6,0,0,0,.23.27l5.52,3.3-4,5a.71.71,0,0,0-.13.34.22.22,0,0,1,0,.08.41.41,0,0,1,0,.11.61.61,0,0,0,.14.33l4,5-5.52,3.32a.63.63,0,0,0-.24.27.2.2,0,0,1,0,.08.36.36,0,0,0,0,.1.63.63,0,0,0,0,.36l2.07,6Zm4.09,10.9-3.45-3.86V66L68,69.76Zm-3.47-3.27,3.41,3.8-.09.74-3.33-3.91Zm0-1.8,0-.67,3.66,3.66-.09.79Zm0-1.22,0-.68,3.79,3.57-.1.81Zm0-1.22,0-.69,3.92,3.46-.1.84Zm4.07,1.68-.07.61-4-3.5v-.75l4.11,3.41A.63.63,0,0,0,68.61,64.7ZM56.2,78.45l-1.78-4.79.24-.59,1.88,4.72Zm-27.08-.66L31,73.08l.23.59-1.77,4.79ZM17.81,71.07l3.4-3.8,0,.63L17.9,71.82ZM17,64.71a.9.9,0,0,0-.06-.22l4.09-3.38,0,.71-4,3.51Zm.14,1.1,3.92-3.47,0,.7-3.84,3.61Zm.16,1.33,3.79-3.56,0,.67L17.43,68Zm.16,1.32,3.66-3.65,0,.66-3.58,3.79Zm.16,1.32L21.18,66l0,.65-3.46,3.85Zm.06-54.64L21.17,19v.64l-3.54-3.73Zm3.48,3.27-3.41-3.8.09-.74,3.33,3.91Zm-.05,1.8v.66l-3.66-3.65.09-.79Zm0,1.22,0,.68-3.79-3.57.09-.81Zm0,1.21,0,.7-3.92-3.46.1-.84ZM17,21l.07-.61,4,3.5,0,.74-4.1-3.4A.63.63,0,0,0,17,21ZM29.43,7.21,31.2,12l-.23.58L29.09,7.87Zm27.1.66-1.89,4.72L54.41,12l1.77-4.8ZM68.61,21a.62.62,0,0,0,.07.23l-4.1,3.37,0-.7,4-3.51ZM68,15.89l-3.53,3.74V19l3.45-3.85Zm.48,4-3.92,3.46,0-.69L68.37,19Zm-.16-1.34-3.79,3.57,0-.68,3.71-3.7Zm-.16-1.32-3.66,3.66,0-.67,3.59-3.78Zm-.31-2.6-3.41,3.8v-.63l3.32-3.92ZM75,47.39l-.41-.5,5.14.62.43.64Zm-.77-1-.42-.52L79,46.4l.44.67Zm-.78-.95L73,45l5.23.33.46.69Zm-.77-1L72.19,44l5.27.16.47.71Zm-.77-.95L71.39,43h5.36a.67.67,0,0,0,.1.23l.33.51Zm5-1.18a.51.51,0,0,0-.1.21H71.41l.45-.55,5.33-.17Zm.61-.93-5.27.17.44-.54,5.3-.33Zm.75-1.12L73,40.69l.42-.53,5.26-.49Zm.73-1.11-5.19.48.43-.52,5.21-.63Zm.74-1.11-5.14.62.41-.5,5.16-.76Zm-4.36-.34.4-.49,5.1-.89-.42.63ZM80.75,36l-5.1.89-.55-.33,5-1ZM70.37,33.76l-.64-.39,5-1.8a.75.75,0,0,0,.17.19l.49.36ZM74.65,31a.65.65,0,0,0,0,.24l-5,1.79.23-.67,5-2Zm.25-1.07L70,31.82l.23-.66,4.86-2.09Zm.31-1.31-4.8,2.07.22-.63,4.77-2.24Zm.31-1.29-4.71,2.2.22-.63,4.68-2.35ZM75.83,26l-4.62,2.32.21-.61L76,25.25Zm-4.22,1.15.21-.59L76.3,24l-.17.73Zm4.49-3.49-4.49,2.55L71,26.09l4.39-2.65ZM65.56,25l-.74-.15,4.11-3.39a.84.84,0,0,0,.23.12l.59.17ZM67.44,13.6l-3.33,3.91-.64.1,3.21-4ZM58,18.43l-.74.11L60,14a.69.69,0,0,0,.25,0l.61,0Zm1.46-4.85a.62.62,0,0,0,.14.19l-2.68,4.55-.26-.66L59.17,13Zm-4.36.15-.24-.6,1.91-4.79.35.69Zm.7-6.67L54,11.86l-.56.3,1.64-4.8ZM53,12.45l-.58.31,1.52-4.89.72-.3ZM51.87,13l-.59.32L52.66,8.4l.74-.32Zm-1.09.59-.6.32,1.23-5,.77-.32Zm-1.08.58-.62.33,1.08-5.08L51,9.12Zm-1.08.58-.67.36.94-5.2a1.11,1.11,0,0,0,.25,0l.57-.25Zm-.32-5a.69.69,0,0,0,.2.13l-.94,5.18-.47-.53.75-5.2Zm-1.57,4.39-.46-.53.59-5.19.62.57Zm-.82-.93-.46-.51.43-5.19.61.56Zm-.83-.92-.44-.5.27-5.17.59.55Zm-.83-.93-.43-.49L44,5.72l.57.53Zm-.82-.93L43,10V4.85l.56.51ZM42.6,4.85V10l-.42.47-.13-5.06Zm-.81,6-.43.49-.28-5.1.58-.53Zm-.82.92-.44.5-.42-5.12.59-.55Zm-.81.91-.46.51-.58-5.13.61-.57Zm-.82.92-.46.52L38.13,9l.63-.58Zm-.81.91-.5.56-.92-5.21a.67.67,0,0,0,.21-.13l.45-.41ZM36.48,9.89a.59.59,0,0,0,.23,0l.92,5.19L37,14.79,35.9,9.64Zm.05,4.65-.62-.34L34.66,9.12l.79.33Zm-1.1-.6-.6-.32-1.4-5,.76.32Zm-1.09-.58-.6-.32L32.21,8.09,33,8.4Zm-1.1-.6-.58-.31L31,7.58l.72.3Zm-1.1-.59-.56-.3-1.77-4.8.7.3Zm-3.3-3.82,1.91,4.79-.23.6-2-4.7ZM29,17.67l-.28.7L26,13.79a.75.75,0,0,0,.15-.2l.28-.54ZM25.42,14a.5.5,0,0,0,.24,0l2.66,4.57-.71-.11L24.8,14Zm-3.28,3.61-.63-.1-3.33-3.9.76,0Zm-5.67,4a1,1,0,0,0,.21-.1l4.09,3.39-.71.13-4.19-3.24Zm-1.83,4.5-.63.12L9.52,23.68l.73-.22ZM9.32,24l4.49,2.55.2.59L9.49,24.75Zm4.88,3.7.21.61L9.8,26l-.18-.76Zm.4,1.15.21.63-4.71-2.2-.18-.78ZM15,30l.22.64-4.8-2.06-.19-.81Zm.4,1.15.23.66-4.89-1.93-.2-.82Zm.4,1.16L16,33l-5-1.81A.7.7,0,0,0,11,31l-.14-.59Zm-5.1-.57a.65.65,0,0,0,.16-.17l5,1.81-.62.37-5.06-1.64Zm-.16,4.84-.55.33-5.1-.88.61-.45Zm-5.72-.16,5.1.88.4.49-5.09-.75Zm5.88,1.83.4.51L6,38.17l-.43-.65Zm.77.95.42.52-5.19-.48-.45-.67Zm.77,1,.43.53-5.23-.33L7,39.69Zm.77,1,.44.54-5.26-.16-.47-.71Zm.77.95.48.58H8.88a.73.73,0,0,0-.09-.23l-.34-.51Zm-5,1.18a.67.67,0,0,0,.09-.21h5.34l-.45.55-5.33.17Zm-.62.93L13.44,44l-.44.54-5.3.34Zm-.74,1.12L12.66,45l-.43.53L7,46Zm-.74,1.12,5.19-.49-.42.52-5.21.64ZM6,47.53l5.14-.62-.41.5-5.16.77Zm4.36.34-.4.49-5.1.89.41-.63ZM4.89,49.64l5.1-.89.55.33-5,1Zm10.37,2.27.65.39-5,1.8a.73.73,0,0,0-.17-.18l-.5-.37ZM11,54.71a.65.65,0,0,0,0-.24l5-1.79-.23.67-5,2Zm-.25,1.07,4.89-1.93-.23.66L10.54,56.6Zm-.31,1.31L15.23,55l-.22.63-4.77,2.24Zm-.31,1.29,4.71-2.2-.22.63L9.93,59.16Zm-.31,1.29,4.62-2.32-.21.61L9.63,60.42ZM14,58.52l-.21.59L9.34,61.67l.17-.73ZM9.54,62,14,59.46l.62.12-4.39,2.65Zm10.54-1.36.74.14-4.11,3.4a.84.84,0,0,0-.23-.12l-.59-.17ZM18.21,72.07l3.33-3.91.63-.1L19,72Zm9.43-4.83.74-.12L25.69,71.7a.64.64,0,0,0-.24,0l-.62,0Zm-1.45,4.84a.86.86,0,0,0-.14-.18l2.67-4.56L29,68l-2.51,4.64Zm4.35-.14.24.59-1.9,4.79-.36-.69Zm-.7,6.66,1.77-4.8.56-.3-1.63,4.81Zm2.86-5.38.57-.31-1.51,4.88L31,78.1Zm1.08-.59.59-.32-1.38,5-.75.31Zm1.08-.58.6-.33-1.23,5-.77.33Zm1.08-.59.62-.33-1.08,5.08-.79.34ZM37,70.88l.64-.35-.94,5.2a.79.79,0,0,0-.22,0l-.57.24Zm.3,5a.86.86,0,0,0-.2-.13l.94-5.18.47.53-.76,5.2Zm1.56-4.38.47.52-.59,5.19-.63-.57Zm.83.92.45.51-.42,5.19-.61-.57Zm.82.92.45.5-.28,5.17-.59-.54Zm.83.93.43.49-.13,5.14-.57-.53Zm.83.93.42.47v5.11l-.56-.52ZM43,80.82V75.71l.42-.47.13,5.06Zm.82-6,.43-.49.27,5.1-.57.53Zm.81-.92.44-.5.42,5.13-.59.54Zm.82-.91.45-.51.58,5.13-.61.57Zm.81-.91.47-.52.74,5.13-.62.58Zm.82-.92.5-.56.92,5.21a.57.57,0,0,0-.21.13l-.46.42Zm2,4.63a1.06,1.06,0,0,0-.23,0L48,70.54l.63.34L49.72,76Zm-.06-4.64.62.33L51,76.54l-.8-.33Zm1.1.59.61.32,1.4,5-.77-.32Zm1.1.59.59.32,1.54,5-.75-.32Zm1.1.59.57.31,1.66,4.88-.72-.31Zm1.09.59.57.31,1.77,4.79-.7-.29Zm3.3,3.82-1.91-4.78.24-.61,2,4.7ZM56.67,68l.27-.69,2.68,4.58a1,1,0,0,0-.16.19l-.28.55Zm3.53,3.66a.85.85,0,0,0-.23,0L57.3,67.12l.72.11,2.81,4.46Zm3.29-3.6.63.09,3.33,3.91-.76,0Zm5.67-4a.68.68,0,0,0-.21.1l-4.09-3.39.71-.14,4.19,3.25ZM71,59.56l.63-.12L76.11,62l-.73.21Zm5.32,2.09-4.49-2.56-.2-.59,4.52,2.42Zm-4.88-3.71-.21-.61,4.61,2.32.18.75ZM71,56.79l-.21-.63,4.71,2.2.18.78Zm-.4-1.15L70.41,55l4.81,2.08.19.8Zm-.39-1.16L70,53.83l4.89,1.93.2.82Zm-.4-1.15-.24-.7,5,1.81a.7.7,0,0,0,0,.25l.14.59Zm5.1.57a.65.65,0,0,0-.16.17l-5-1.81.62-.37,5.06,1.64Zm.16-4.84.55-.33,5.1.89-.61.44Z" style="fill:url(#linear-gradient-2)"/><path d="M66.14,55.33l-3.58-2-1-3.75,3.23-2.23,4.07.71H69a.67.67,0,0,0,.12-1.32L65,46l-2.26-3.18L65,39.65l4.08-.71a.67.67,0,1,0-.24-1.31l-4.07.71-3.23-2.22,1-3.76,3.58-2a.66.66,0,0,0,.25-.9.68.68,0,0,0-.92-.25l-3.59,2-3.8-1-.35-3.87,2.66-3.12a.67.67,0,0,0-.08-.94.68.68,0,0,0-1,.09L56.7,25.49l-3.92.34-1.67-3.52,1.41-3.83a.65.65,0,0,0-.4-.85.67.67,0,0,0-.86.4l-1.42,3.83L46.27,23.5l-2.79-2.75V16.68a.67.67,0,0,0-.67-.67.68.68,0,0,0-.68.67v4.08L39.35,23.5l-3.57-1.64L34.36,18a.68.68,0,0,0-.86-.4.66.66,0,0,0-.4.85l1.41,3.84-1.66,3.52-3.93-.34-2.66-3.12a.69.69,0,0,0-1-.09.67.67,0,0,0-.08.94l2.66,3.12-.34,3.87-3.81,1-3.58-2a.68.68,0,0,0-.92.24.65.65,0,0,0,.25.91l3.58,2,1,3.74-3.22,2.23-4.08-.7a.66.66,0,0,0-.78.54.65.65,0,0,0,.54.76l4.08.71,2.26,3.18L20.64,46l-4.08.71a.67.67,0,0,0-.55.77.68.68,0,0,0,.67.55h.11l4.08-.71,3.23,2.22-1,3.75L19.5,55.35a.64.64,0,0,0-.25.9.68.68,0,0,0,.58.33.69.69,0,0,0,.34-.09l3.58-2,3.81,1,.35,3.87-2.66,3.13a.67.67,0,0,0,1,.85l2.66-3.13,3.92-.34,1.67,3.52-1.41,3.84a.66.66,0,0,0,.4.85,1,1,0,0,0,.23,0,.66.66,0,0,0,.63-.44l1.42-3.83,3.56-1.64,2.78,2.74V69a.68.68,0,0,0,.68.67.67.67,0,0,0,.67-.67V64.91l2.79-2.75,3.57,1.64,1.42,3.83a.67.67,0,0,0,1.26-.45l-1.41-3.83,1.66-3.52,3.93.34,2.66,3.12a.65.65,0,0,0,.51.24.64.64,0,0,0,.43-.16.65.65,0,0,0,.09-.93l-2.66-3.12.34-3.87,3.81-1,3.58,2a.69.69,0,0,0,.34.09.67.67,0,0,0,.58-.33A.65.65,0,0,0,66.14,55.33Zm-8.86-1h-.05a.45.45,0,0,0-.21.12h0a.49.49,0,0,0-.16.19l0,.08a.42.42,0,0,0,0,.15s0,0,0,0l-.35,3.93-4-.34h-.09a.69.69,0,0,0-.2,0l-.08.05a.39.39,0,0,0-.14.08s0,0-.05.06a.61.61,0,0,0-.1.14h0l-1.7,3.59-3.64-1.68h-.05a.67.67,0,0,0-.24,0h0a.54.54,0,0,0-.22,0l-.09,0a1,1,0,0,0-.13.09h0l-2.83,2.79L40,60.9h0l-.16-.1-.07,0-.1,0-.15,0h0a.65.65,0,0,0-.23.06h0l-3.64,1.67-1.69-3.59s0,0,0,0l0,0a.64.64,0,0,0-.6-.31h0l-4,.35-.35-3.94s0,0,0,0,0,0,0-.05a.84.84,0,0,0-.07-.19s0,0,0,0a.73.73,0,0,0-.14-.16l-.11-.06-.11,0,0,0-3.88-1,1-3.82v0s0-.05,0-.08a1,1,0,0,0,0-.17l0-.1a.52.52,0,0,0-.06-.13.38.38,0,0,0-.1-.12l-.07-.07s0,0,0,0L22,46.46l2.3-3.24a0,0,0,0,1,0,0l0-.07a1,1,0,0,0,.06-.16.41.41,0,0,0,0-.11.33.33,0,0,0,0-.14.69.69,0,0,0-.05-.13,1,1,0,0,0,0-.1l0,0L22,39.22l3.29-2.28,0,0,.05-.05a.75.75,0,0,0,.12-.14.36.36,0,0,0,0-.09.37.37,0,0,0,0-.14.38.38,0,0,0,0-.15v-.1s0,0,0,0l-1-3.81,3.88-1,0,0,.1-.05a.41.41,0,0,0,.11-.07.81.81,0,0,0,.09-.1l.07-.09a.88.88,0,0,0,.05-.15.24.24,0,0,0,0-.08,0,0,0,0,0,0,0l.35-3.94,4,.35h.1a.68.68,0,0,0,.28-.07l.06,0a.64.64,0,0,0,.22-.24s0,0,0,0l1.7-3.58,3.64,1.67h.1a.58.58,0,0,0,.18,0l.1,0,.15,0a.57.57,0,0,0,.13-.08l.08,0,0,0L42.81,22l2.84,2.8h0l0,0a.59.59,0,0,0,.17.1l.08,0a.8.8,0,0,0,.15,0h0l.13,0a.35.35,0,0,0,.11,0h0l3.63-1.68,1.71,3.59s0,0,0,0a.66.66,0,0,0,.21.23l.08.05a.77.77,0,0,0,.26.07h.11l4-.34.35,3.94s0,0,0,0v0a.44.44,0,0,0,.07.19l0,.06.11.13a.31.31,0,0,0,.1.05.27.27,0,0,0,.12.06.05.05,0,0,0,0,0l3.87,1-1,3.82s0,0,0,0v0a.49.49,0,0,0,0,.21.14.14,0,0,0,0,.07,1.15,1.15,0,0,0,.06.17l.09.09s0,.07.09.09v0l3.29,2.26-2.3,3.25,0,0a0,0,0,0,1,0,0,.49.49,0,0,0-.08.21v0a.67.67,0,0,0,0,.2l0,.1a.52.52,0,0,0,.06.13v0l2.3,3.24-3.29,2.27,0,0h0a.65.65,0,0,0-.15.18s0,0,0,0a.6.6,0,0,0-.06.19.48.48,0,0,0,0,.12.57.57,0,0,0,0,.13v0l1,3.82Z" style="fill:url(#linear-gradient-3)"/></g></g></svg>